<?xml version="1.0" encoding="UTF-8" standalone="no"?>
<!-- Created with Inkscape (http://www.inkscape.org/) -->

<svg
   xmlns:dc="http://purl.org/dc/elements/1.1/"
   xmlns:cc="http://creativecommons.org/ns#"
   xmlns:rdf="http://www.w3.org/1999/02/22-rdf-syntax-ns#"
   xmlns:svg="http://www.w3.org/2000/svg"
   xmlns="http://www.w3.org/2000/svg"
   xmlns:sodipodi="http://sodipodi.sourceforge.net/DTD/sodipodi-0.dtd"
   xmlns:inkscape="http://www.inkscape.org/namespaces/inkscape"
   width="481.5358"
   height="126.78009"
   id="svg3771"
   version="1.1"
   inkscape:version="0.91 r13725"
   sodipodi:docname="sourcefu.svg"
   inkscape:export-filename="/home/pdurbin/art/greptilian1.png"
   inkscape:export-xdpi="2.4000001"
   inkscape:export-ydpi="2.4000001">
  <defs
     id="defs3773">
    <inkscape:path-effect
       fuse_tolerance="0"
       vertical_pattern="false"
       prop_units="false"
       tang_offset="0"
       normal_offset="0"
       spacing="0"
       scale_y_rel="false"
       prop_scale="1"
       copytype="single_stretched"
       pattern="m 393.91466,498.4832 c 0,-2.76 2.24,-5 5,-5 2.76,0 5,2.24 5,5 0,2.76 -2.24,5 -5,5 -2.76,0 -5,-2.24 -5,-5 z"
       is_visible="true"
       id="path-effect3788"
       effect="skeletal" />
    <inkscape:path-effect
       is_visible="true"
       id="path-effect3786"
       effect="spiro" />
    <inkscape:path-effect
       effect="skeletal"
       id="path-effect3760"
       is_visible="true"
       pattern="m -210.11173,-104.09647 c 0,-2.76 2.24,-5 5,-5 2.76,0 5,2.24 5,5 0,2.76 -2.24,4.999995 -5,4.999995 -2.76,0 -5,-2.239995 -5,-4.999995 z"
       copytype="single_stretched"
       prop_scale="1"
       scale_y_rel="false"
       spacing="0"
       normal_offset="0"
       tang_offset="0"
       prop_units="false"
       vertical_pattern="false"
       fuse_tolerance="0" />
    <inkscape:path-effect
       effect="spiro"
       id="path-effect3758"
       is_visible="true" />
    <inkscape:path-effect
       effect="skeletal"
       id="path-effect3754"
       is_visible="true"
       pattern="M 0,5 C 0,2.24 2.24,0 5,0 7.76,0 10,2.24 10,5 10,7.76 7.76,10 5,10 2.24,10 0,7.76 0,5 Z"
       copytype="single_stretched"
       prop_scale="1"
       scale_y_rel="false"
       spacing="0"
       normal_offset="0"
       tang_offset="0"
       prop_units="false"
       vertical_pattern="false"
       fuse_tolerance="0" />
    <inkscape:path-effect
       effect="spiro"
       id="path-effect3752"
       is_visible="true" />
    <inkscape:path-effect
       effect="skeletal"
       id="path-effect3700"
       is_visible="true"
       pattern="M 0,5 C 0,2.24 2.24,0 5,0 7.76,0 10,2.24 10,5 10,7.76 7.76,10 5,10 2.24,10 0,7.76 0,5 Z"
       copytype="single_stretched"
       prop_scale="1"
       scale_y_rel="false"
       spacing="0"
       normal_offset="0"
       tang_offset="0"
       prop_units="false"
       vertical_pattern="false"
       fuse_tolerance="0" />
    <inkscape:path-effect
       effect="spiro"
       id="path-effect3698"
       is_visible="true" />
    <inkscape:path-effect
       effect="skeletal"
       id="path-effect3694"
       is_visible="true"
       pattern="M 0,5 C 0,2.24 2.24,0 5,0 7.76,0 10,2.24 10,5 10,7.76 7.76,10 5,10 2.24,10 0,7.76 0,5 Z"
       copytype="single_stretched"
       prop_scale="1"
       scale_y_rel="false"
       spacing="0"
       normal_offset="0"
       tang_offset="0"
       prop_units="false"
       vertical_pattern="false"
       fuse_tolerance="0" />
    <inkscape:path-effect
       effect="spiro"
       id="path-effect3692"
       is_visible="true" />
    <inkscape:path-effect
       effect="skeletal"
       id="path-effect3688"
       is_visible="true"
       pattern="M 0,5 C 0,2.24 2.24,0 5,0 7.76,0 10,2.24 10,5 10,7.76 7.76,10 5,10 2.24,10 0,7.76 0,5 Z"
       copytype="single_stretched"
       prop_scale="1"
       scale_y_rel="false"
       spacing="0"
       normal_offset="0"
       tang_offset="0"
       prop_units="false"
       vertical_pattern="false"
       fuse_tolerance="0" />
    <inkscape:path-effect
       effect="spiro"
       id="path-effect3686"
       is_visible="true" />
    <inkscape:path-effect
       effect="skeletal"
       id="path-effect3682"
       is_visible="true"
       pattern="M 0,5 C 0,2.24 2.24,0 5,0 7.76,0 10,2.24 10,5 10,7.76 7.76,10 5,10 2.24,10 0,7.76 0,5 Z"
       copytype="single_stretched"
       prop_scale="1"
       scale_y_rel="false"
       spacing="0"
       normal_offset="0"
       tang_offset="0"
       prop_units="false"
       vertical_pattern="false"
       fuse_tolerance="0" />
    <inkscape:path-effect
       effect="spiro"
       id="path-effect3680"
       is_visible="true" />
    <inkscape:path-effect
       effect="skeletal"
       id="path-effect3616"
       is_visible="true"
       pattern="M 0,5 C 0,2.24 2.24,0 5,0 7.76,0 10,2.24 10,5 10,7.76 7.76,10 5,10 2.24,10 0,7.76 0,5 Z"
       copytype="single_stretched"
       prop_scale="1"
       scale_y_rel="false"
       spacing="0"
       normal_offset="0"
       tang_offset="0"
       prop_units="false"
       vertical_pattern="false"
       fuse_tolerance="0" />
    <inkscape:path-effect
       effect="spiro"
       id="path-effect3614"
       is_visible="true" />
    <inkscape:path-effect
       effect="skeletal"
       id="path-effect3610"
       is_visible="true"
       pattern="M 0,5 C 0,2.24 2.24,0 5,0 7.76,0 10,2.24 10,5 10,7.76 7.76,10 5,10 2.24,10 0,7.76 0,5 Z"
       copytype="single_stretched"
       prop_scale="1"
       scale_y_rel="false"
       spacing="0"
       normal_offset="0"
       tang_offset="0"
       prop_units="false"
       vertical_pattern="false"
       fuse_tolerance="0" />
    <inkscape:path-effect
       effect="spiro"
       id="path-effect3608"
       is_visible="true" />
    <inkscape:path-effect
       effect="skeletal"
       id="path-effect3604"
       is_visible="true"
       pattern="M 0,5 C 0,2.24 2.24,0 5,0 7.76,0 10,2.24 10,5 10,7.76 7.76,10 5,10 2.24,10 0,7.76 0,5 Z"
       copytype="single_stretched"
       prop_scale="1"
       scale_y_rel="false"
       spacing="0"
       normal_offset="0"
       tang_offset="0"
       prop_units="false"
       vertical_pattern="false"
       fuse_tolerance="0" />
    <inkscape:path-effect
       effect="spiro"
       id="path-effect3602"
       is_visible="true" />
    <inkscape:path-effect
       effect="skeletal"
       id="path-effect3598"
       is_visible="true"
       pattern="M 0,5 C 0,2.24 2.24,0 5,0 7.76,0 10,2.24 10,5 10,7.76 7.76,10 5,10 2.24,10 0,7.76 0,5 Z"
       copytype="single_stretched"
       prop_scale="1"
       scale_y_rel="false"
       spacing="0"
       normal_offset="0"
       tang_offset="0"
       prop_units="false"
       vertical_pattern="false"
       fuse_tolerance="0" />
    <inkscape:path-effect
       effect="spiro"
       id="path-effect3596"
       is_visible="true" />
    <inkscape:path-effect
       effect="skeletal"
       id="path-effect3592"
       is_visible="true"
       pattern="M 0,5 C 0,2.24 2.24,0 5,0 7.76,0 10,2.24 10,5 10,7.76 7.76,10 5,10 2.24,10 0,7.76 0,5 Z"
       copytype="single_stretched"
       prop_scale="1"
       scale_y_rel="false"
       spacing="0"
       normal_offset="0"
       tang_offset="0"
       prop_units="false"
       vertical_pattern="false"
       fuse_tolerance="0" />
    <inkscape:path-effect
       effect="spiro"
       id="path-effect3590"
       is_visible="true" />
    <inkscape:path-effect
       fuse_tolerance="0"
       vertical_pattern="false"
       prop_units="false"
       tang_offset="0"
       normal_offset="0"
       spacing="0"
       scale_y_rel="false"
       prop_scale="1"
       copytype="single_stretched"
       pattern="m 219.50779,565.85329 c 0,-2.76 2.24,-5 5,-5 2.76,0 5,2.24 5,5 0,2.76 -2.24,5 -5,5 -2.76,0 -5,-2.24 -5,-5 z"
       is_visible="true"
       id="path-effect3544"
       effect="skeletal" />
    <inkscape:path-effect
       is_visible="true"
       id="path-effect3542"
       effect="spiro" />
    <inkscape:path-effect
       effect="skeletal"
       id="path-effect3510"
       is_visible="true"
       pattern="M 0,5 C 0,2.24 2.24,0 5,0 7.76,0 10,2.24 10,5 10,7.76 7.76,10 5,10 2.24,10 0,7.76 0,5 Z"
       copytype="single_stretched"
       prop_scale="1"
       scale_y_rel="false"
       spacing="0"
       normal_offset="0"
       tang_offset="0"
       prop_units="false"
       vertical_pattern="false"
       fuse_tolerance="0" />
    <inkscape:path-effect
       effect="spiro"
       id="path-effect3508"
       is_visible="true" />
    <inkscape:path-effect
       effect="skeletal"
       id="path-effect3504"
       is_visible="true"
       pattern="m -415.59365,74.916483 c 0,-2.76 2.24,-5 5,-5 2.76,0 5,2.24 5,5 0,2.76 -2.24,5.000003 -5,5.000003 -2.76,0 -5,-2.240003 -5,-5.000003 z"
       copytype="single_stretched"
       prop_scale="1"
       scale_y_rel="false"
       spacing="0"
       normal_offset="0"
       tang_offset="0"
       prop_units="false"
       vertical_pattern="false"
       fuse_tolerance="0" />
    <inkscape:path-effect
       effect="spiro"
       id="path-effect3502"
       is_visible="true" />
    <inkscape:path-effect
       effect="skeletal"
       id="path-effect3498"
       is_visible="true"
       pattern="M 0,5 C 0,2.24 2.24,0 5,0 7.76,0 10,2.24 10,5 10,7.76 7.76,10 5,10 2.24,10 0,7.76 0,5 Z"
       copytype="single_stretched"
       prop_scale="1"
       scale_y_rel="false"
       spacing="0"
       normal_offset="0"
       tang_offset="0"
       prop_units="false"
       vertical_pattern="false"
       fuse_tolerance="0" />
    <inkscape:path-effect
       effect="spiro"
       id="path-effect3496"
       is_visible="true" />
    <inkscape:path-effect
       effect="skeletal"
       id="path-effect3492"
       is_visible="true"
       pattern="M 0,5 C 0,2.24 2.24,0 5,0 7.76,0 10,2.24 10,5 10,7.76 7.76,10 5,10 2.24,10 0,7.76 0,5 Z"
       copytype="single_stretched"
       prop_scale="1"
       scale_y_rel="false"
       spacing="0"
       normal_offset="0"
       tang_offset="0"
       prop_units="false"
       vertical_pattern="false"
       fuse_tolerance="0" />
    <inkscape:path-effect
       effect="spiro"
       id="path-effect3490"
       is_visible="true" />
    <inkscape:path-effect
       effect="skeletal"
       id="path-effect3486"
       is_visible="true"
       pattern="M 0,5 C 0,2.24 2.24,0 5,0 7.76,0 10,2.24 10,5 10,7.76 7.76,10 5,10 2.24,10 0,7.76 0,5 Z"
       copytype="single_stretched"
       prop_scale="1"
       scale_y_rel="false"
       spacing="0"
       normal_offset="0"
       tang_offset="0"
       prop_units="false"
       vertical_pattern="false"
       fuse_tolerance="0" />
    <inkscape:path-effect
       effect="spiro"
       id="path-effect3484"
       is_visible="true" />
    <inkscape:path-effect
       effect="skeletal"
       id="path-effect3480"
       is_visible="true"
       pattern="M 0,5 C 0,2.24 2.24,0 5,0 7.76,0 10,2.24 10,5 10,7.76 7.76,10 5,10 2.24,10 0,7.76 0,5 Z"
       copytype="single_stretched"
       prop_scale="1"
       scale_y_rel="false"
       spacing="0"
       normal_offset="0"
       tang_offset="0"
       prop_units="false"
       vertical_pattern="false"
       fuse_tolerance="0" />
    <inkscape:path-effect
       effect="spiro"
       id="path-effect3478"
       is_visible="true" />
    <inkscape:path-effect
       effect="skeletal"
       id="path-effect3474"
       is_visible="true"
       pattern="M 0,5 C 0,2.24 2.24,0 5,0 7.76,0 10,2.24 10,5 10,7.76 7.76,10 5,10 2.24,10 0,7.76 0,5 Z"
       copytype="single_stretched"
       prop_scale="1"
       scale_y_rel="false"
       spacing="0"
       normal_offset="0"
       tang_offset="0"
       prop_units="false"
       vertical_pattern="false"
       fuse_tolerance="0" />
    <inkscape:path-effect
       effect="spiro"
       id="path-effect3472"
       is_visible="true" />
    <inkscape:path-effect
       effect="skeletal"
       id="path-effect3468"
       is_visible="true"
       pattern="M 0,5 C 0,2.24 2.24,0 5,0 7.76,0 10,2.24 10,5 10,7.76 7.76,10 5,10 2.24,10 0,7.76 0,5 Z"
       copytype="single_stretched"
       prop_scale="1"
       scale_y_rel="false"
       spacing="0"
       normal_offset="0"
       tang_offset="0"
       prop_units="false"
       vertical_pattern="false"
       fuse_tolerance="0" />
    <inkscape:path-effect
       effect="spiro"
       id="path-effect3466"
       is_visible="true" />
    <inkscape:path-effect
       effect="skeletal"
       id="path-effect3462"
       is_visible="true"
       pattern="M 0,5 C 0,2.24 2.24,0 5,0 7.76,0 10,2.24 10,5 10,7.76 7.76,10 5,10 2.24,10 0,7.76 0,5 Z"
       copytype="single_stretched"
       prop_scale="1"
       scale_y_rel="false"
       spacing="0"
       normal_offset="0"
       tang_offset="0"
       prop_units="false"
       vertical_pattern="false"
       fuse_tolerance="0" />
    <inkscape:path-effect
       effect="spiro"
       id="path-effect3460"
       is_visible="true" />
    <inkscape:path-effect
       effect="skeletal"
       id="path-effect3456"
       is_visible="true"
       pattern="M 0,5 C 0,2.24 2.24,0 5,0 7.76,0 10,2.24 10,5 10,7.76 7.76,10 5,10 2.24,10 0,7.76 0,5 Z"
       copytype="single_stretched"
       prop_scale="1"
       scale_y_rel="false"
       spacing="0"
       normal_offset="0"
       tang_offset="0"
       prop_units="false"
       vertical_pattern="false"
       fuse_tolerance="0" />
    <inkscape:path-effect
       effect="spiro"
       id="path-effect3454"
       is_visible="true" />
    <inkscape:path-effect
       effect="skeletal"
       id="path-effect3450"
       is_visible="true"
       pattern="M 0,5 C 0,2.24 2.24,0 5,0 7.76,0 10,2.24 10,5 10,7.76 7.76,10 5,10 2.24,10 0,7.76 0,5 Z"
       copytype="single_stretched"
       prop_scale="1"
       scale_y_rel="false"
       spacing="0"
       normal_offset="0"
       tang_offset="0"
       prop_units="false"
       vertical_pattern="false"
       fuse_tolerance="0" />
    <inkscape:path-effect
       effect="spiro"
       id="path-effect3448"
       is_visible="true" />
    <inkscape:path-effect
       effect="skeletal"
       id="path-effect3444"
       is_visible="true"
       pattern="m -646.02408,177.11455 c 0,-2.76 2.24,-5 5,-5 2.76,0 5,2.24 5,5 0,2.76 -2.24,5 -5,5 -2.76,0 -5,-2.24 -5,-5 z"
       copytype="single_stretched"
       prop_scale="1"
       scale_y_rel="false"
       spacing="0"
       normal_offset="0"
       tang_offset="0"
       prop_units="false"
       vertical_pattern="false"
       fuse_tolerance="0" />
    <inkscape:path-effect
       effect="spiro"
       id="path-effect3442"
       is_visible="true" />
    <inkscape:path-effect
       effect="skeletal"
       id="path-effect3438"
       is_visible="true"
       pattern="M 0,5 C 0,2.24 2.24,0 5,0 7.76,0 10,2.24 10,5 10,7.76 7.76,10 5,10 2.24,10 0,7.76 0,5 Z"
       copytype="single_stretched"
       prop_scale="1"
       scale_y_rel="false"
       spacing="0"
       normal_offset="0"
       tang_offset="0"
       prop_units="false"
       vertical_pattern="false"
       fuse_tolerance="0" />
    <inkscape:path-effect
       effect="spiro"
       id="path-effect3436"
       is_visible="true" />
    <inkscape:path-effect
       effect="skeletal"
       id="path-effect3432"
       is_visible="true"
       pattern="M 0,5 C 0,2.24 2.24,0 5,0 7.76,0 10,2.24 10,5 10,7.76 7.76,10 5,10 2.24,10 0,7.76 0,5 Z"
       copytype="single_stretched"
       prop_scale="1"
       scale_y_rel="false"
       spacing="0"
       normal_offset="0"
       tang_offset="0"
       prop_units="false"
       vertical_pattern="false"
       fuse_tolerance="0" />
    <inkscape:path-effect
       effect="spiro"
       id="path-effect3430"
       is_visible="true" />
    <inkscape:path-effect
       effect="skeletal"
       id="path-effect3426"
       is_visible="true"
       pattern="M 0,5 C 0,2.24 2.24,0 5,0 7.76,0 10,2.24 10,5 10,7.76 7.76,10 5,10 2.24,10 0,7.76 0,5 Z"
       copytype="single_stretched"
       prop_scale="1"
       scale_y_rel="false"
       spacing="0"
       normal_offset="0"
       tang_offset="0"
       prop_units="false"
       vertical_pattern="false"
       fuse_tolerance="0" />
    <inkscape:path-effect
       effect="spiro"
       id="path-effect3424"
       is_visible="true" />
    <inkscape:path-effect
       effect="skeletal"
       id="path-effect3408"
       is_visible="true"
       pattern="M 0,5 C 0,2.24 2.24,0 5,0 7.76,0 10,2.24 10,5 10,7.76 7.76,10 5,10 2.24,10 0,7.76 0,5 Z"
       copytype="single_stretched"
       prop_scale="1"
       scale_y_rel="false"
       spacing="0"
       normal_offset="0"
       tang_offset="0"
       prop_units="false"
       vertical_pattern="false"
       fuse_tolerance="0" />
    <inkscape:path-effect
       effect="spiro"
       id="path-effect3406"
       is_visible="true" />
    <inkscape:path-effect
       effect="skeletal"
       id="path-effect3396"
       is_visible="true"
       pattern="M 0,5 C 0,2.24 2.24,0 5,0 7.76,0 10,2.24 10,5 10,7.76 7.76,10 5,10 2.24,10 0,7.76 0,5 Z"
       copytype="single_stretched"
       prop_scale="1"
       scale_y_rel="false"
       spacing="0"
       normal_offset="0"
       tang_offset="0"
       prop_units="false"
       vertical_pattern="false"
       fuse_tolerance="0" />
    <inkscape:path-effect
       effect="spiro"
       id="path-effect3394"
       is_visible="true" />
    <inkscape:path-effect
       effect="skeletal"
       id="path-effect3390"
       is_visible="true"
       pattern="M 0,5 C 0,2.24 2.24,0 5,0 7.76,0 10,2.24 10,5 10,7.76 7.76,10 5,10 2.24,10 0,7.76 0,5 Z"
       copytype="single_stretched"
       prop_scale="1"
       scale_y_rel="false"
       spacing="0"
       normal_offset="0"
       tang_offset="0"
       prop_units="false"
       vertical_pattern="false"
       fuse_tolerance="0" />
    <inkscape:path-effect
       effect="spiro"
       id="path-effect3388"
       is_visible="true" />
    <inkscape:path-effect
       effect="skeletal"
       id="path-effect3384"
       is_visible="true"
       pattern="m 166.26286,176.11863 c 0,-2.76 2.24,-5 5,-5 2.76,0 5,2.24 5,5 0,2.76 -2.24,5 -5,5 -2.76,0 -5,-2.24 -5,-5 z"
       copytype="single_stretched"
       prop_scale="1"
       scale_y_rel="false"
       spacing="0"
       normal_offset="0"
       tang_offset="0"
       prop_units="false"
       vertical_pattern="false"
       fuse_tolerance="0" />
    <inkscape:path-effect
       effect="spiro"
       id="path-effect3382"
       is_visible="true" />
    <inkscape:path-effect
       effect="skeletal"
       id="path-effect3354"
       is_visible="true"
       pattern="m 157.67657,174.09833 c 0,-2.76 2.24,-5 5,-5 2.76,0 5,2.24 5,5 0,2.76 -2.24,5 -5,5 -2.76,0 -5,-2.24 -5,-5 z"
       copytype="single_stretched"
       prop_scale="1"
       scale_y_rel="false"
       spacing="0"
       normal_offset="0"
       tang_offset="0"
       prop_units="false"
       vertical_pattern="false"
       fuse_tolerance="0" />
    <inkscape:path-effect
       effect="spiro"
       id="path-effect3352"
       is_visible="true" />
    <inkscape:path-effect
       effect="skeletal"
       id="path-effect3348"
       is_visible="true"
       pattern="m 169.29332,187.23031 c 0,-2.76 2.24,-5 5,-5 2.76,0 5,2.24 5,5 0,2.76 -2.24,5 -5,5 -2.76,0 -5,-2.24 -5,-5 z"
       copytype="single_stretched"
       prop_scale="1"
       scale_y_rel="false"
       spacing="0"
       normal_offset="0"
       tang_offset="0"
       prop_units="false"
       vertical_pattern="false"
       fuse_tolerance="0" />
    <inkscape:path-effect
       effect="spiro"
       id="path-effect3346"
       is_visible="true" />
    <inkscape:path-effect
       effect="skeletal"
       id="path-effect3336"
       is_visible="true"
       pattern="m 708.35496,-90.692464 c 0,-2.76 2.24,-5 5,-5 2.76,0 5,2.24 5,5 0,2.76 -2.24,5 -5,5 -2.76,0 -5,-2.24 -5,-5 z"
       copytype="single_stretched"
       prop_scale="1"
       scale_y_rel="false"
       spacing="0"
       normal_offset="0"
       tang_offset="0"
       prop_units="false"
       vertical_pattern="false"
       fuse_tolerance="0" />
    <inkscape:path-effect
       effect="spiro"
       id="path-effect3334"
       is_visible="true" />
    <inkscape:path-effect
       effect="skeletal"
       id="path-effect3330"
       is_visible="true"
       pattern="m 161.35269,174.15252 c 0,-2.76 2.24,-5 5,-5 2.76,0 5,2.24 5,5 0,2.76 -2.24,5 -5,5 -2.76,0 -5,-2.24 -5,-5 z"
       copytype="single_stretched"
       prop_scale="1"
       scale_y_rel="false"
       spacing="0"
       normal_offset="0"
       tang_offset="0"
       prop_units="false"
       vertical_pattern="false"
       fuse_tolerance="0" />
    <inkscape:path-effect
       effect="spiro"
       id="path-effect3328"
       is_visible="true" />
    <inkscape:path-effect
       effect="skeletal"
       id="path-effect3324"
       is_visible="true"
       pattern="M 0,5 C 0,2.24 2.24,0 5,0 7.76,0 10,2.24 10,5 10,7.76 7.76,10 5,10 2.24,10 0,7.76 0,5 Z"
       copytype="single_stretched"
       prop_scale="1"
       scale_y_rel="false"
       spacing="0"
       normal_offset="0"
       tang_offset="0"
       prop_units="false"
       vertical_pattern="false"
       fuse_tolerance="0" />
    <inkscape:path-effect
       effect="spiro"
       id="path-effect3322"
       is_visible="true" />
    <inkscape:path-effect
       effect="spiro"
       id="path-effect3502-5"
       is_visible="true" />
    <inkscape:path-effect
       effect="skeletal"
       id="path-effect3504-8"
       is_visible="true"
       pattern="m -864.02908,-602.99893 c 0,-2.76 2.24,-5 5,-5 2.76,0 5,2.24 5,5 0,2.76 -2.24,5 -5,5 -2.76,0 -5,-2.24 -5,-5 z"
       copytype="single_stretched"
       prop_scale="1"
       scale_y_rel="false"
       spacing="0"
       normal_offset="0"
       tang_offset="0"
       prop_units="false"
       vertical_pattern="false"
       fuse_tolerance="0" />
    <inkscape:path-effect
       effect="spiro"
       id="path-effect3758-9"
       is_visible="true" />
    <inkscape:path-effect
       effect="skeletal"
       id="path-effect3760-3"
       is_visible="true"
       pattern="m -854.56831,-571.92138 c 0,-2.76 2.24,-5 5,-5 2.76,0 5,2.24 5,5 0,2.76 -2.24,5 -5,5 -2.76,0 -5,-2.24 -5,-5 z"
       copytype="single_stretched"
       prop_scale="1"
       scale_y_rel="false"
       spacing="0"
       normal_offset="0"
       tang_offset="0"
       prop_units="false"
       vertical_pattern="false"
       fuse_tolerance="0" />
  </defs>
  <sodipodi:namedview
     id="base"
     pagecolor="#ffffff"
     bordercolor="#666666"
     borderopacity="1.0"
     inkscape:pageopacity="0.0"
     inkscape:pageshadow="2"
     inkscape:zoom="0.98994949"
     inkscape:cx="317.48002"
     inkscape:cy="48.969173"
     inkscape:document-units="px"
     inkscape:current-layer="layer1"
     showgrid="false"
     inkscape:window-width="1366"
     inkscape:window-height="744"
     inkscape:window-x="0"
     inkscape:window-y="24"
     inkscape:window-maximized="1"
     fit-margin-top="0"
     fit-margin-left="30"
     fit-margin-right="0"
     fit-margin-bottom="0" />
  <metadata
     id="metadata3776">
    <rdf:RDF>
      <cc:Work
         rdf:about="">
        <dc:format>image/svg+xml</dc:format>
        <dc:type
           rdf:resource="http://purl.org/dc/dcmitype/StillImage" />
        <dc:title></dc:title>
      </cc:Work>
    </rdf:RDF>
  </metadata>
  <g
     inkscape:label="Layer 1"
     inkscape:groupmode="layer"
     id="layer1"
     transform="translate(-220.77409,-435.69344)">
    <path
       style="fill:#000000;fill-rule:evenodd;stroke:none"
       d="m 136.06484,322.40583 c -1.24364,0.52723 -1.92471,-2.91351 -7.18115,-4.3112 -1.57829,-0.43161 -3.49899,-0.53346 -5.4651,-0.0358 -1.60772,0.40357 -3.25955,1.24265 -4.69298,2.50378 -2.40248,2.05477 -4.11168,5.56836 -4.32651,9.49968 -0.15964,2.90044 0.59945,6.04812 2.10023,9.09064 1.38429,2.79759 3.48475,5.4154 6.07734,7.89583 4.94816,4.77659 11.02638,7.9292 18.33529,12.56992 2.22172,1.34582 4.71651,3.04259 7.03823,5.43529 0.16566,0.17073 0.3303,0.34484 0.49377,0.52247 2.57665,2.71729 4.2625,6.52777 4.30059,10.88821 -0.27038,4.4756 -2.31497,8.20212 -5.16723,10.67745 -2.85802,2.50975 -6.01856,4.01351 -8.95914,4.90135 -13.55705,4.32318 -26.71031,0.47 -35.10903,-5.89563 0,0 0,-1e-5 0,-1e-5 -8.959914,-6.84766 -12.460356,-15.92758 -13.496478,-21.69439 -1.090865,-6.0715 0.06436,-9.34924 0.675832,-9.36545 0.890894,-0.0236 1.312622,3.16564 3.465544,8.14805 2.061619,4.7711 6.188372,11.90785 13.759192,16.60578 0,0 0,10e-6 0,10e-6 7.01273,4.40094 17.67139,6.69809 27.63686,3.0958 2.14848,-0.8267 4.12403,-1.72927 5.35003,-3.0027 1.10372,-1.18911 2.02441,-2.63388 1.89372,-3.7193 0.17411,-1.07152 -0.70184,-2.54973 -1.8254,-3.9974 -0.081,-0.0975 -0.16539,-0.19418 -0.25309,-0.29011 -1.2247,-1.33962 -3.09697,-2.53604 -5.13926,-3.89372 -6.92961,-4.38703 -13.62751,-8.2738 -19.60928,-14.29679 -3.16068,-3.20482 -5.7353,-6.86927 -7.49117,-10.88889 -1.93193,-4.40967 -2.6119,-9.11397 -2.06145,-13.55847 0.76042,-6.16564 4.13354,-11.13322 8.32666,-14.03253 2.52174,-1.71018 5.26849,-2.58574 7.83867,-2.80732 3.14821,-0.26834 5.9214,0.48944 8.01311,1.61319 6.93495,3.76066 5.27867,8.42425 5.4722,8.34221 z"
       id="path3320"
       inkscape:path-effect="#path-effect3322;#path-effect3324"
       inkscape:original-d="m 136.06484,322.40583 c 0.007,-4.08184 -2.6547,-5.42248 -6.32668,-6.32671 -8.78284,-2.1628 -24.72871,1.66961 -19.33151,13.59719 5.77133,12.7544 18.59673,23.83635 27.83738,34.15027 3.44426,3.8443 7.2184,7.82995 9.52517,12.5136 4.12051,8.36629 -3.30077,11.59546 -10.68506,11.1504 -11.29308,-0.68065 -58.767781,-14.50604 -46.395636,-32.40256"
       inkscape:connector-curvature="0"
       transform="translate(161.2121,168.59325)" />
    <path
       style="fill:#000000;fill-rule:evenodd;stroke:none"
       d="m 482.82147,547.14047 c -0.89143,0.78335 -4.91406,-1.44618 -9.53866,-7.35401 -4.62871,-5.91306 -9.48689,-15.24164 -11.00886,-27.16469 0,0 0,-10e-6 0,-10e-6 -0.2242,-1.52757 -0.36172,-3.24989 -0.27149,-5.12218 0.0479,-0.99374 0.15936,-2.01768 0.35103,-3.06726 1.01977,-4.93005 4.02475,-8.91656 7.91147,-11.31108 4.37587,-2.65436 9.2818,-3.01399 13.39508,-1.84437 5.06597,1.47519 8.32906,4.99826 9.89397,8.33923 3.88533,8.40566 -1.2962,11.57016 -1.34802,11.55648 -1.60245,-0.42312 -0.58893,-4.20911 -4.18156,-8.22111 -1.41905,-1.61221 -3.72675,-3.10817 -6.27847,-3.39252 -2.03553,-0.25362 -4.49436,0.27035 -6.28507,1.60143 -1.60145,1.15155 -2.94265,3.15101 -3.31286,5.21758 -0.10767,0.45737 -0.15996,0.96521 -0.17461,1.52343 -0.0274,1.045 0.0783,2.26591 0.18395,3.56973 0,0 0,0 0,0 1.05188,10.18355 4.15811,18.58362 6.88262,24.83162 2.678,6.14134 4.81088,9.93314 3.78148,10.83773 z"
       id="path3344"
       inkscape:path-effect="#path-effect3346;#path-effect3348"
       inkscape:original-d="m 482.82147,547.14047 c -8.12126,-9.58466 -12.72536,-22.91971 -15.60581,-35.09403 -0.3284,-1.38802 -1.76407,-5.56773 0.0351,-6.6413 3.2919,-1.96424 20.87701,4.64085 24.95523,5.76744"
       inkscape:connector-curvature="0" />
    <path
       style="fill:#000000;fill-rule:evenodd;stroke:none"
       d="m 538.93532,503.21382 c -0.77146,0.13527 -1.31073,-1.02486 -2.89866,-1.50156 0,10e-6 0,0 0,0 -0.5563,-0.19166 -1.17764,-0.24437 -2.01609,-0.25264 -0.70403,-6e-5 -1.39688,0.10646 -2.41771,0.23168 0,0 0,0 0,0 -4.06867,0.57605 -9.83078,1.93062 -14.24049,5.51657 -3.33509,2.7039 -6.3796,6.98874 -6.74864,11.5531 -0.0613,0.5344 -0.0872,1.07978 -0.0787,1.63211 0.0566,3.67427 1.60882,7.31163 3.83527,9.82671 3.08159,3.55145 7.72233,5.29981 11.5556,5.62377 4.01741,0.35187 7.60882,-0.7209 9.98584,-1.57569 2.44357,-0.87873 3.92933,-1.60852 4.49979,-1.06333 0.0163,0.0155 -0.99903,8.70519 -14.26559,10.15422 -5.68796,0.60735 -12.91707,-0.98047 -18.62358,-6.51995 -4.10717,-4.03588 -6.8652,-9.82431 -6.97012,-16.28663 -0.0157,-0.96716 0.029,-1.93383 0.13394,-2.89479 1.04564,-8.14961 5.94781,-14.38658 11.49536,-17.87526 7.17189,-4.48798 14.62598,-4.81793 19.53487,-4.06397 0,0 10e-6,0 10e-6,0 1.18336,0.16373 2.34291,0.42383 3.46265,0.84809 1.39664,0.51575 2.51466,1.36275 3.28066,2.27683 0,0 0,0 0,0 2.17835,2.67973 0.73392,4.32544 0.47558,4.37074 z"
       id="path3350"
       inkscape:path-effect="#path-effect3352;#path-effect3354"
       inkscape:original-d="m 538.93532,503.21382 c -0.56237,-0.97871 -0.99606,-2.04363 -1.68712,-2.93615 -0.97075,-1.25376 -4.21176,-1.54827 -5.58856,-1.57294 -11.01067,-0.19729 -22.44082,9.55748 -26.00968,19.50445 -5.32107,14.83071 5.85426,25.32054 20.38597,21.39198 5.10161,-1.37919 9.7897,-3.8371 14.37561,-6.39662"
       inkscape:connector-curvature="0" />
    <path
       style="fill:#000000;fill-rule:evenodd;stroke:none"
       d="m 567.38035,515.61553 c 1.29955,-1.40197 3.59468,2.24482 9.58018,0.25036 2.15926,-0.69189 4.63042,-2.49901 5.69163,-5.08276 0.51305,-1.1955 0.76355,-2.60231 0.66827,-4.00642 -0.084,-1.29055 -0.48314,-2.63886 -1.16367,-3.84599 -1.17962,-2.17703 -3.63685,-4.04109 -6.37448,-4.72589 -2.53497,-0.6597 -5.61784,-0.26146 -8.20758,1.0785 -0.89308,0.45489 -1.74529,1.04421 -2.53555,1.74217 -1.44472,1.27599 -2.63651,2.87379 -3.47891,4.57302 -1.39599,2.79555 -1.85069,6.08819 -1.59885,9.14729 0.27586,3.38612 1.51447,6.6542 3.13767,9.42099 2.46681,4.17394 5.8867,7.22696 9.1231,9.24161 0,0 0,0 0,0 7.36302,4.59302 13.10291,4.11172 13.22437,5.7313 0.0421,0.56127 -5.70317,4.14276 -16.07493,0.13683 0,0 -10e-6,0 -10e-6,0 -4.48931,-1.73776 -9.47806,-5.01566 -13.38605,-10.33096 -2.60153,-3.52097 -4.66992,-7.95644 -5.42905,-13.05257 -0.68835,-4.64534 -0.15338,-9.74196 2.03202,-14.53107 1.34615,-2.93553 3.32606,-5.63743 5.86723,-7.85265 1.38867,-1.21055 2.91793,-2.2519 4.55924,-3.09935 4.86247,-2.48945 10.37968,-2.93935 15.36524,-1.49593 5.45057,1.60469 9.62079,5.46065 11.77081,10.12536 1.14738,2.54801 1.61448,5.24202 1.48759,7.82911 -0.14179,2.82005 -1.01163,5.4081 -2.34328,7.56731 -2.95526,4.72677 -7.64912,6.72796 -11.4352,6.99447 -10.16602,0.64397 -10.05272,-6.27546 -10.47979,-5.81473 z"
       id="path3380"
       inkscape:path-effect="#path-effect3382;#path-effect3384"
       inkscape:original-d="m 567.38035,515.61553 c 6.09667,2.6429 13.48609,1.24381 18.5934,-3.00607 10.2883,-8.56106 5.30296,-23.39377 -8.8925,-19.05004 -12.18614,3.72888 -25.37027,20.37717 -17.53895,32.99677 5.48927,8.84557 16.23808,11.66802 25.90423,12.58352"
       inkscape:connector-curvature="0" />
    <path
       style="fill:#000000;fill-rule:evenodd;stroke:none"
       d="m 462.13478,356.06674 c -0.296,0.48763 -2.1117,0.5644 -4.62242,-1.37861 -2.13064,-1.67947 -4.3465,-4.59936 -5.68042,-8.81998 -1.01415,-3.11331 -1.47457,-6.01018 -2.0657,-9.47237 0,0 0,0 0,0 -1.63413,-9.45379 -3.48507,-17.00895 -6.39788,-29.15166 -0.91613,-3.81912 -1.77422,-7.4545 -2.57144,-11.09528 -0.99123,-4.24352 -1.74691,-8.58035 -1.3947,-13.25226 0.21061,-2.53719 0.8634,-4.998 1.93699,-7.24892 0,0 0,-10e-6 0,-10e-6 1.18819,-2.49898 2.95938,-4.56191 5.03733,-6.05556 3.78117,-2.65356 7.9485,-2.87925 10.99549,-2.09722 7.87172,2.06667 6.82247,7.29211 6.90679,7.23342 -1.23252,0.85791 -2.91015,-2.03089 -7.69154,-1.77135 -1.81399,0.0814 -4.0537,0.84167 -5.5475,2.43341 -0.87304,0.88002 -1.56352,2.10336 -2.04698,3.52303 0,0 0,10e-6 0,10e-6 -0.4403,1.29757 -0.62195,2.79381 -0.62706,4.44515 -0.047,3.10637 0.88014,6.30467 1.92698,10.49608 0.92673,3.50111 1.8993,7.25557 2.81002,11.05541 2.75336,11.48794 4.42046,21.32779 4.81062,30.63033 0,0 0,10e-6 0,10e-6 0.17333,3.9512 0.0659,5.95654 0.39071,8.85024 0.4388,3.59458 1.12378,5.79571 2.12645,7.7417 1.06812,2.13503 2.09236,3.29508 1.70426,3.93443 z"
       id="path3386"
       inkscape:path-effect="#path-effect3388;#path-effect3390"
       inkscape:original-d="m 462.13478,356.06674 c -1.05445,-0.88551 -2.26577,-1.61232 -3.16334,-2.65652 -1.53791,-1.78913 -4.4436,-14.88831 -5.13164,-17.44215 -3.62053,-13.43867 -6.83663,-27.10317 -8.29498,-40.96634 -0.62743,-5.96442 -2.7714,-18.20366 3.16334,-22.51051 4.54154,-3.29581 11.28335,0.3378 15.57066,2.23707"
       inkscape:connector-curvature="0"
       transform="translate(161.2121,168.59325)" />
    <path
       style="fill:#000000;fill-rule:evenodd;stroke:none"
       d="m 419.81633,311.3603 c -0.3996,-0.89966 0.96651,-2.70332 4.18979,-4.51012 5.21601,-2.89372 12.2473,-4.35389 21.8574,-5.00569 1.55454,-0.11442 3.14782,-0.21583 4.76967,-0.3027 17.34376,-0.92897 31.62868,0.11261 31.8524,2.86262 0.22375,2.75032 -13.75804,6.18254 -31.31754,7.12307 -1.63657,0.0876 -3.24497,0.15073 -4.81719,0.19063 -24.1075,0.74873 -1.03395,-0.55033 -20.74222,0.44717 -3.23302,0.14706 -5.36408,0.15913 -5.79231,-0.80498 z"
       id="path3392"
       inkscape:path-effect="#path-effect3394;#path-effect3396"
       inkscape:original-d="m 419.81633,311.3603 c 1.66369,-0.61752 3.29013,-1.34656 4.99105,-1.85257 6.68689,-1.98931 14.39977,-2.10479 21.29981,-2.72643 12.0508,-1.08569 24.26177,-2.37689 36.3784,-2.37689"
       inkscape:connector-curvature="0"
       transform="translate(161.2121,168.59325)" />
    <path
       style="fill:#000000;fill-rule:evenodd;stroke:none"
       d="m 363.41982,500.69634 c -0.32985,0.74483 -2.86859,0.0121 -7.3207,-0.0651 -4.24823,-0.0736 -11.01191,0.56014 -17.07553,4.60514 0,0 0,0 0,0 -5.57457,3.6705 -10.89478,10.7792 -11.55498,19.32612 10e-6,0 0,10e-6 0,10e-6 -0.59374,6.95733 2.1571,15.10583 8.01395,20.36999 0.95513,0.87377 2.0006,1.67135 3.11987,2.38453 5.42141,3.45442 12.08865,4.66076 17.85113,3.58677 4.56285,-0.82735 8.73924,-2.96228 11.95233,-5.7658 3.6503,-3.17508 6.1505,-7.25644 7.49012,-11.27493 1.67388,-4.99945 1.62265,-9.97073 0.8378,-13.96195 -1.83036,-9.35403 -6.67758,-13.02087 -5.60999,-14.20187 0.18473,-0.20435 7.04316,1.52885 11.17383,12.57859 1.74414,4.67649 2.64492,10.87945 1.08804,17.64227 -1.25943,5.44604 -4.11682,11.10345 -8.86753,15.76794 -4.19882,4.11337 -9.75254,7.3018 -16.15568,8.68513 -8.25437,1.75197 -17.42581,0.301 -25.13936,-4.63597 -1.59025,-1.01783 -3.08811,-2.16627 -4.4764,-3.4341 -8.41279,-7.77673 -11.7616,-18.8912 -10.51409,-28.75121 0,0 0,0 0,0 1.58813,-12.00332 9.3373,-20.58673 17.15719,-24.62602 0,0 1e-5,0 1e-5,0 8.50583,-4.3442 16.67039,-3.62185 21.3427,-2.27695 4.94174,1.42245 6.92223,3.51686 6.68729,4.04738 z"
       id="path3440"
       inkscape:path-effect="#path-effect3442;#path-effect3444"
       inkscape:original-d="m 363.41982,500.69634 c -37.70726,-8.8937 -44.54709,51.78591 -6.0118,54.94218 33.5486,2.74783 43.3897,-35.17691 13.7158,-49.93924"
       inkscape:connector-curvature="0" />
    <path
       style="fill:#000000;fill-rule:evenodd;stroke:none"
       d="m 662.62636,467.88313 c 1.1174,0.70812 -1.68931,6.46477 -5.14699,16.23846 -1.71931,4.93038 -3.98095,11.78523 -4.13142,18.37692 -0.097,5.39579 0.98326,11.62216 4.49231,15.99975 2.30292,2.98642 5.75117,5.43235 9.53523,6.29154 0.42408,0.10665 0.85618,0.19327 1.29492,0.26031 3.75192,0.57328 7.79883,-0.30681 11.16688,-2.00604 4.13012,-2.07589 7.46944,-5.64673 9.81829,-9.4233 6.05629,-9.48257 5.91421,-22.90264 5.86073,-29.46858 -0.0983,-6.41523 -0.30335,-10.21683 0.65423,-10.44368 0.8371,-0.19831 2.75641,3.21567 4.37766,9.77778 1.7496,6.89939 3.9241,21.09103 -2.98544,34.60109 -2.73486,5.22439 -7.08126,10.23843 -13.09452,13.59855 -4.99279,2.78147 -11.06476,4.12712 -17.2552,3.2321 -0.72211,-0.10441 -1.44095,-0.23875 -2.15489,-0.40327 -6.34054,-1.55347 -11.60159,-5.38753 -15.06605,-10.2472 -5.00889,-7.21223 -6.11155,-15.53382 -5.28436,-22.41798 0.9779,-8.35403 4.26352,-15.45878 6.97505,-20.34145 5.28978,-9.61844 10.03848,-14.19857 10.94357,-13.625 z"
       id="path3756"
       inkscape:path-effect="#path-effect3758;#path-effect3760"
       inkscape:original-d="m 662.62636,467.88313 c -4.1749,4.12481 -5.69984,9.70525 -8.04528,14.93173 -6.20705,13.83151 -10.54501,24.70951 -0.6649,38.56805 2.97219,4.16901 7.09393,7.65007 12.30064,8.26937 18.77814,2.23352 31.72954,-30.78137 31.81543,-45.83304 0.0203,-3.56355 -0.59962,-6.80615 -1.86171,-10.11073"
       inkscape:connector-curvature="0" />
    <path
       style="fill:#000000;fill-rule:evenodd;stroke:none"
       d="m 412.08444,493.54142 c 1.1174,0.70812 -1.6893,6.46478 -5.14699,16.23846 -1.71931,4.93038 -3.98095,11.78523 -4.13142,18.37692 -0.097,5.39578 0.98326,11.62216 4.49231,15.99975 2.30292,2.98642 5.75117,5.43235 9.53523,6.29154 0.42408,0.10665 0.85618,0.19327 1.29492,0.2603 3.75192,0.57329 7.79883,-0.30681 11.16688,-2.00603 4.13012,-2.07589 7.46944,-5.64674 9.81829,-9.4233 6.05629,-9.48257 5.91421,-22.90264 5.86072,-29.46858 -0.0983,-6.41523 -0.30335,-10.21683 0.65424,-10.44368 0.8371,-0.19831 2.7564,3.21567 4.37766,9.77778 1.7496,6.89939 3.9241,21.09103 -2.98543,34.60109 -2.73487,5.22439 -7.08127,10.23843 -13.09453,13.59855 -4.99279,2.78148 -11.06476,4.12713 -17.2552,3.2321 -0.72211,-0.1044 -1.44095,-0.23874 -2.15489,-0.40327 -6.34054,-1.55346 -11.60159,-5.38753 -15.06605,-10.2472 -5.0089,-7.21223 -6.11155,-15.53382 -5.28436,-22.41798 0.9779,-8.35403 4.26352,-15.45878 6.97505,-20.34145 5.28978,-9.61844 10.03848,-14.19857 10.94357,-13.625 z"
       id="path3756-9"
       inkscape:path-effect="#path-effect3786;#path-effect3788"
       inkscape:original-d="m 412.08444,493.54142 c -4.1749,4.12481 -5.69984,9.70525 -8.04528,14.93173 -6.20705,13.83151 -10.54501,24.70951 -0.6649,38.56805 2.97219,4.16901 7.09393,7.65007 12.30064,8.26937 18.77814,2.23352 31.72954,-30.78137 31.81543,-45.83304 0.0203,-3.56355 -0.59962,-6.80615 -1.86171,-10.11073"
       inkscape:connector-curvature="0" />
  </g>
</svg>
